<svg width="24" height="24" viewBox="0 0 24 24" fill="none" xmlns="http://www.w3.org/2000/svg">
  <path fill-rule="evenodd" clip-rule="evenodd" d="M12 2C6.48 2 2 6.48 2 12C2 16.42 4.87 20.17 8.84 21.5C9.34 21.57 9.5 21.27 9.5 21V19.27C6.73 19.91 6.14 18.41 6.14 18.41C5.72 17.29 5.1 17.04 5.1 17.04C4.18 16.45 5.17 16.46 5.17 16.46C6.18 16.52 6.65 17.5 6.65 17.5C7.5 18.89 8.97 18.46 9.54 18.21C9.63 17.59 9.89 17.18 10.19 16.94C7.82 16.7 5.33 15.73 5.33 11.95C5.33 10.88 5.73 10.03 6.36 9.38C6.26 9.13 5.92 8.03 6.43 6.61C6.43 6.61 7.23 6.33 9.5 7.72C10.29 7.5 11.14 7.38 12 7.37C12.86 7.38 13.71 7.5 14.5 7.72C16.77 6.33 17.57 6.61 17.57 6.61C18.08 8.03 17.74 9.13 17.64 9.38C18.27 10.03 18.67 10.88 18.67 11.95C18.67 15.74 16.18 16.69 13.81 16.94C14.18 17.25 14.52 17.83 14.52 18.74V21C14.52 21.27 14.68 21.57 15.18 21.5C19.15 20.17 22 16.42 22 12C22 6.48 17.52 2 12 2Z" fill="#FFFFFF"/>
</svg>